<svg xmlns="http://www.w3.org/2000/svg" viewBox="0 0 75 64" fill="currentColor">
  <path fill-rule="evenodd" d="M27.407 43.486c1.372.08 2.502 1.2 2.663 2.48.646 4.72.646 7.12.08 11.839-.241 1.28-1.37 2.4-2.662 2.48-3.953.24-6.939.4-9.844.4-2.904 0-5.89-.16-9.763-.4-1.29-.08-2.501-1.2-2.663-2.48-.645-4.72-.645-7.12 0-11.84.162-1.279 1.292-2.399 2.583-2.479 7.826-.56 11.7-.56 19.607 0Zm-5.82 8.892a.566.566 0 0 0 0-.985l-5.483-3.138a.574.574 0 0 0-.86.492v6.276c0 .438.477.712.86.493l5.482-3.138Z" clip-rule="evenodd"/>
  <path d="M34.518 1.7c-.236 1.27-.28 5.252-.075 6.791.424 3.19 1.686 6.545 3.316 8.82l.45.628-.51.698c-1.42 1.95-2.42 4.23-2.723 6.202-.2 1.312-.093 3.895.21 5.045.13.495.225.913.21.929-.014.015-.36-.195-.767-.468a35.748 35.748 0 0 0-1.987-1.187c-1.21-.672-1.269-.723-2.04-1.802-1.9-2.658-2.656-5.162-2.656-8.804 0-2.104.19-3.495.726-5.325l.071-.24c.234-.796.288-.98.226-1.05-.019-.02-.048-.031-.086-.045a1.22 1.22 0 0 1-.038-.015c-.213-.086-.47.51-.957 2.213-.524 1.835-.708 3.265-.709 5.501 0 2.881.408 4.852 1.44 6.948.22.448.375.816.343.816-.16 0-1.91-.789-2.843-1.28-1.4-.739-1.905-1.115-3.051-2.272-1.685-1.7-2.704-3.257-3.584-5.473-.405-1.02-1.135-3.621-1.135-4.045 0-.083.193-.247.43-.366 1.733-.868 4.262-3.244 5.403-5.075 1.298-2.084 1.95-3.957 2.274-6.542.05-.395.027-.512-.099-.512-.116 0-.201.27-.294.942-.361 2.605-1.745 5.35-3.762 7.463-1.392 1.458-3.811 3.127-4.097 2.827-.217-.23-.243-4.26-.038-6.107.103-.929.216-1.803.251-1.944.052-.203.005-.267-.229-.314l-.037-.008c-.074-.015-.13-.027-.176-.01-.14.05-.194.366-.413 1.64l-.036.214c-.352 2.056-.383 6.667-.056 8.441.279 1.509.83 3.49 1.238 4.448.181.424.329.788.329.809 0 .085-.951-.323-1.629-.699a13.569 13.569 0 0 1-3.424-2.706c-1.94-2.111-3.035-4.424-3.375-7.128-.057-.452-.13-.633-.256-.633-.244 0-.122 1.076.327 2.894.777 3.149 2.508 5.726 5.203 7.744.8.598 3.05 1.807 3.63 1.948.198.049.405.256.595.597.47.845 1.71 2.39 2.616 3.266 1.274 1.23 2.534 2.05 4.774 3.112 1.117.53 2.068.998 2.112 1.041.044.044-.678.09-1.605.103-.928.012-2.047.079-2.489.147l-.064.01c-1.885.292-2.465.382-3.02.296-.246-.039-.487-.112-.836-.218l-.027-.008c-.594-.18-1.414-.486-1.822-.681-2.571-1.226-5.052-3.947-6.059-6.646-.169-.452-.376-.822-.46-.822-.215 0-.2.098.18 1.167a13.445 13.445 0 0 0 5.734 6.997l.864.518-.857-.004c-.472-.002-1.4-.104-2.062-.227-5.01-.932-8.76-4.594-11.294-11.033-.43-1.09-1.237-3.597-1.373-4.262-.09-.436-.14-.46-.446-.216-.203.163-.196.227.198 1.715 1.12 4.234 2.689 7.625 4.754 10.28l.382.491H8.82c-1.39 0-3.295-.602-4.742-1.497-.993-.614-2.834-2.497-3.547-3.627C.08 21.392 0 21.315 0 21.59c0 .473 1.27 2.397 2.29 3.47 1.989 2.091 4.135 3.098 6.827 3.203 1.182.046 1.287.07 1.663.393 1.235 1.056 2.95 2.051 4.475 2.598 1.329.476 2.554.703 4.24.787l1.549.078-.384.22c-.21.12-1.14.696-2.064 1.279-.924.583-1.965 1.185-2.312 1.338-.346.153-.682.317-.745.365-.274.206-2.375.828-3.26.964-.92.14-2.95.096-3.707-.081-.238-.056-.315-.03-.315.112 0 .31 1.148.505 2.924.497 1.714-.007 2.711-.2 4.45-.857.878-.332 3.15-1.49 3.645-1.858.556-.413 2.339-1.29 3.373-1.659a13.932 13.932 0 0 1 14.62 3.309c.507.51.908.944.89.963-.02.02-.42-.075-.892-.211-1.079-.311-4.149-.445-5.342-.233-1.939.345-4.666 1.703-4.266 2.123.038.041.424-.112.856-.34 1.676-.881 2.854-1.17 4.792-1.169 1.494 0 2.706.207 4.156.709 1.61.557 2.13.874 2.527 1.546 1.248 2.11 1.826 3.649 2.392 6.367.041.2.1 1.122.132 2.051.05 1.494.022 1.86-.238 3.158-.321 1.601-.888 3.273-1.526 4.498-1.28 2.46-3.774 5.396-5.836 6.872-1.15.824-3.412 2.065-4.535 2.49-.31.117-.563.254-.563.304 0 .05 3.161.08 7.025.066l7.024-.024-.04-.738c-.044-.846.206-2.017.603-2.82.325-.658 1.09-2.567 1.424-3.557.658-1.95 1.133-4.785 1.242-7.416l.073-1.749 1.359-2.863c.335-.706.644-1.36.881-1.869.482-.752 1.058-1.472 1.822-2.302 1.374-1.493 2.646-2.494 4.833-3.802 1.704-1.02 1.982-1.257 1.665-1.426-.218-.117-2.23.867-4 1.955-2.688 1.653-4.724 3.585-6.095 5.782-.271.38-.488.667-.546.718-.133.116-.171-.122-.236-1.464-.175-3.642.356-6.618 1.561-8.737.967-1.7 3.297-3.59 5.094-4.132a13.863 13.863 0 0 1 6.537-.38c1.638.297 2.033.408 3.508.988 1.344.527 1.518.586 3.021 1.01 1.955.551 4.127.687 5.847.365 1.09-.205 2.582-.779 2.582-.994 0-.21-.101-.196-1.058.14-1.672.588-4.134.639-6.251.13-.834-.201-2.394-.715-2.955-.972-2.565-1.18-4.466-1.707-6.823-1.892-.387-.03-.372-.044.401-.382 1.24-.541 2.839-1.568 3.606-2.315l.695-.676 1.462.015c1.639.018 2.875-.173 4.149-.641 1.208-.444 2.875-1.473 2.875-1.774 0-.195-.247-.11-.9.31-1.422.916-3.955 1.5-5.804 1.34-.502-.043-.928-.095-.948-.115-.019-.02.205-.412.498-.87 1.17-1.83 1.975-4.085 2.247-6.29.121-.987.116-1.139-.046-1.309-.167-.176-.19-.138-.263.454-.328 2.659-1.333 4.955-3.137 7.167-1.746 2.142-3.43 3.08-8.203 4.573-.559.174-1.552.558-2.206.852-.655.294-1.21.534-1.236.534-.025 0 .149-.474.385-1.055.704-1.725 1.454-4.231 1.733-5.79l.135-.755.704-.353c1.867-.937 3.762-2.97 4.818-5.17.421-.876.947-2.474 1.152-3.496.249-1.242.356-2.795.193-2.795-.072 0-.131.023-.131.051 0 .47-.323 2.178-.59 3.125-.683 2.414-2.075 4.71-3.678 6.066-.831.703-2.087 1.48-2.2 1.362-.032-.034 0-.44.07-.902.179-1.165.178-7.292-.002-8.798-.294-2.473-1.021-5.93-1.268-6.03-.09-.036-.188-.04-.217-.009-.047.05.136 1.192.543 3.386.368 1.986.495 7.001.24 9.466-.564 5.456-2.59 11.145-5.083 14.275-1.269 1.593-2.019 3.187-2.578 5.477l-.333 1.362-.521-.699c-.612-.82-1.052-1.699-1.437-2.87-.22-.666-.291-1.184-.342-2.471-.074-1.901.067-3.31.539-5.388.45-1.986.996-3.484 2.072-5.692.839-1.72.951-2.064.675-2.064-.19 0-1.254 1.835-2.114 3.648-1.645 3.466-2.427 6.835-2.338 10.066l.041 1.475-.845-.872c-1.576-1.626-2.743-3.524-3.363-5.468-.224-.705-.264-1.076-.263-2.458.002-1.897.211-2.852 1.02-4.65.865-1.922 1.55-2.887 4.009-5.642 2.264-2.537 3.311-3.888 3.8-4.901.417-.866.845-2.324 1.036-3.53.23-1.446.364-4.671.195-4.671-.068 0-.204-.033-.304-.073-.152-.062-.182.036-.182.605 0 .762-.372 3.312-.618 4.231-.585 2.189-1.352 3.504-3.057 5.246-1.36 1.39-3.79 3.678-3.906 3.678-.195 0-1.456-1.9-2.036-3.067-.478-.962-1.392-3.215-1.392-3.434 0-.031.299-.225.663-.43 1.428-.799 2.957-2.444 3.871-4.164.445-.836 1.135-2.836 1.238-3.587.085-.617-.212-.618-.322-.002-.27 1.515-1.577 3.904-2.853 5.217-.79.813-2.18 1.79-2.617 1.84-.22.026-.27-.06-.396-.694-.374-1.872-.454-4.593-.199-6.783.068-.582.055-.633-.16-.633-.194 0-.256.124-.372.753Z"/>
</svg>