<svg xmlns="http://www.w3.org/2000/svg" viewBox="0 0 24 24" fill="currentColor">
  <path fill-rule="evenodd" d="M17.35 7.314c.751.044 1.37.667 1.459 1.379.354 2.625.354 3.96.044 6.585-.133.712-.752 1.335-1.46 1.38-2.167.133-3.804.222-5.396.222-.676 0-1.36-.016-2.085-.045A3.44 3.44 0 0 0 4.985 13.5c-.131-1.6-.064-2.842.2-4.807.089-.712.708-1.335 1.416-1.38 4.29-.31 6.413-.31 10.748 0Zm-3.192 4.946a.317.317 0 0 0 0-.549l-3.005-1.745a.315.315 0 0 0-.472.274v3.491c0 .244.262.396.472.274l3.005-1.745Z" clip-rule="evenodd"/>
  <path fill-rule="evenodd" d="M4.705 14.098a3.13 3.13 0 0 1 1.497-.493 3.12 3.12 0 0 1 2.642 5.066 1.27 1.27 0 0 0-.081.105c0 .003.072.004.16.001.278-.008.594.037.874.125.193.061.52.226.581.293a.231.231 0 0 1-.06.362c-.095.048-.147.038-.343-.06a1.982 1.982 0 0 0-1.01-.239c-.43.001-.737.075-1.25.298a3.024 3.024 0 0 1-1.31.284c-.504 0-.937-.1-1.38-.32a3.103 3.103 0 0 1-1.743-2.681 3.118 3.118 0 0 1 1.423-2.74Zm2.173.477a.726.726 0 0 0-.352-.189.62.62 0 0 0-.416.061.689.689 0 0 0-.294.277.67.67 0 0 0 .132.812c.424.396 1.128.091 1.125-.488a.64.64 0 0 0-.195-.473Zm-1.375 1.462a.693.693 0 0 0-.498-.511c-.45-.118-.899.293-.82.751.045.263.24.484.484.547.155.04.321.025.463-.042a.669.669 0 0 0 .37-.745Zm3.122.24a.677.677 0 0 0-.531-.757.68.68 0 0 0-.761.42c-.026.062-.031.101-.031.235 0 .136.004.173.032.242.069.172.218.32.393.388a.79.79 0 0 0 .38.027.686.686 0 0 0 .518-.556Zm-2.074.662a.268.268 0 0 0 0-.438c-.128-.085-.306-.044-.373.086-.13.252.14.506.373.352Zm-.546 1.433c.253-.395.026-.936-.431-1.023a.667.667 0 0 0-.799.656c0 .193.062.341.197.477a.69.69 0 0 0 .479.195.69.69 0 0 0 .554-.305Zm2.03-.366c0-.314-.2-.57-.51-.652a.676.676 0 0 0-.82.547.656.656 0 0 0 .205.593.667.667 0 0 0 1.125-.488Z" clip-rule="evenodd"/>
</svg>