<svg xmlns="http://www.w3.org/2000/svg" viewBox="0 0 24 24" fill="currentColor">
  <path d="M17.44 4.66a.1.1 0 0 1 .1.1v.2a.1.1 0 0 1-.2 0v-.2a.1.1 0 0 1 .1-.1ZM17.425 6.048c.08 0 .146.066.146.147a.147.147 0 1 1 0 .294h-.22c-.036 0-.073.037-.073.074 0 .036.037.073.073.073h.147c.199 0 .367.169.367.367a.374.374 0 0 1-.293.36v.008a.147.147 0 1 1-.294 0 .147.147 0 1 1 0-.294h.22c.037 0 .073-.037.073-.074 0-.036-.037-.073-.073-.073h-.147a.373.373 0 0 1-.367-.367c0-.174.129-.325.294-.36v-.008c0-.08.066-.147.147-.147Z"/>
  <path fill-rule="evenodd" d="M17.275 5.33a1.314 1.314 0 0 1 1.472 1.306c0 .367-.15.679-.374.934a.79.79 0 0 0-.213.55.147.147 0 0 1-.148.147h-1.175a.147.147 0 0 1-.147-.147.774.774 0 0 0-.225-.56 1.346 1.346 0 0 1-.346-1.123v-.002a1.347 1.347 0 0 1 1.156-1.106Zm1.178 1.306a1.02 1.02 0 0 0-1.142-1.015h-.002a1.054 1.054 0 0 0-.9.862c-.051.334.064.655.269.874.17.17.268.386.297.616h.9c.03-.22.123-.441.28-.6.186-.214.298-.458.298-.737ZM16.837 8.4a.147.147 0 1 0 0 .293.58.58 0 0 0 .588.588.58.58 0 0 0 .587-.588.147.147 0 1 0 0-.294h-1.175Zm.588.587a.286.286 0 0 1-.294-.294h.587a.286.286 0 0 1-.293.294Z" clip-rule="evenodd"/>
  <path d="M18.901 5.159a.1.1 0 0 1 0 .141l-.141.141a.1.1 0 1 1-.141-.141l.141-.141a.1.1 0 0 1 .141 0ZM15.979 5.159a.1.1 0 0 1 .141 0l.141.141a.1.1 0 1 1-.141.141l-.141-.141a.1.1 0 0 1 0-.141Z"/>
  <path fill-rule="evenodd" d="M18.965 9.995a3.36 3.36 0 1 0-4.883-2.872c-2.453-.096-4.413-.032-7.481.19-.708.045-1.327.668-1.416 1.38a31.41 31.41 0 0 0-.225 2.118l-.233.066c-1.005.282-1.885.55-1.957.594-.191.118-.161.272.094.492.124.107.466.408.76.67l.535.474-.76.677c-.418.371-.76.715-.759.764.002.168.153.263.62.39l.468.128.04 1.864c.025 1.126.073 1.885.122 1.919.068.047 3.361.971 7.124 2l.992.271.663-.183c5.88-1.623 7.373-2.042 7.441-2.088.05-.034.097-.793.121-1.92l.04-1.862.469-.128c.467-.128.618-.223.62-.391 0-.05-.34-.393-.756-.765l-.757-.675.656-.58c.842-.743.924-.842.81-.975-.119-.141-.252-.185-2.219-.728l-.059-.016a24.613 24.613 0 0 0-.07-.814ZM4.93 11.445c-.014.427-.012.844.007 1.275-.103.027-.162.04-.163.039-.005-.006-.25-.227-.546-.491l-.537-.48 1.239-.344Zm14.217 1.273a.549.549 0 0 1-.077-.013c.015-.427.015-.839 0-1.262.613.17 1.092.306 1.134.323.11.044-.899.952-1.057.952Zm-4.988-1.006c.21.121.21.426 0 .548l-3.005 1.745a.315.315 0 0 1-.472-.274v-3.49c0-.244.262-.397.472-.275l3.005 1.746Zm-6.072 2.651c1.731.48 3.147.9 3.147.935 0 .034-.224.26-.497.505l-.498.444-3.174-.879-3.28-.907c-.117-.033.918-.977 1.067-.973.048.001 1.504.395 3.235.875Zm11.692-.405.541.473-.225.063c-.124.035-1.476.409-3.005.83-1.529.422-2.898.803-3.043.848l-.264.08-.422-.365-.572-.49-.149-.123.992-.275 3.211-.893c1.22-.339 2.259-.618 2.307-.619.049 0 .332.211.63.471ZM7.203 16.03c1.418.392 2.71.749 2.87.791.384.103.514.047 1.077-.462l.447-.404v4.434l-.424-.118-3.49-.964-3.067-.847-.022-1.572c-.011-.865-.01-1.572.005-1.572s1.187.321 2.604.714Zm12.203.857-.022 1.57-.282.08c-.156.045-1.59.441-3.188.882-1.598.44-3.041.84-3.208.887l-.303.086V15.95l.484.443c.266.244.55.456.632.472.122.023 3.442-.854 5.3-1.401a6.6 6.6 0 0 1 .546-.145c.034-.002.052.704.04 1.568ZM20.2 7a2.76 2.76 0 1 1-5.52 0 2.76 2.76 0 0 1 5.52 0Z" clip-rule="evenodd"/>
</svg>