<svg xmlns="http://www.w3.org/2000/svg" viewBox="0 0 24 24" fill="currentColor">
  <path d="m17.434 6.7-3.279-3.58a.111.111 0 0 1 .107-.184l4.767 1.098a.561.561 0 0 1 .304.185l3.078 3.662a.124.124 0 0 1 .029.079v2.12l.277.68a.08.08 0 0 1-.074.11h-.766a.08.08 0 0 1-.074-.11l.277-.68V8.005l-4.374-1.14a.562.562 0 0 1-.272-.165Z"/>
  <path d="m15.14 4.543 2.166 2.366a.56.56 0 0 0 .273.164l3.054.796-1.24 2.044a.11.11 0 0 1-.12.05c-.897-.22-1.903-.64-2.899-1.244-1.004-.609-1.847-1.315-2.456-2.014a.11.11 0 0 1-.011-.13l1.233-2.032Z"/>
  <path fill-rule="evenodd" d="M13.681 7.109c.61.698 1.45 1.402 2.453 2.01.984.597 1.978 1.014 2.866 1.236.146 1.657.09 2.911-.147 4.923-.133.712-.752 1.335-1.46 1.38-2.167.133-3.804.222-5.396.222s-3.229-.089-5.352-.223c-.708-.044-1.371-.667-1.46-1.379-.353-2.625-.353-3.96 0-6.585.089-.712.708-1.335 1.416-1.38 2.9-.21 4.809-.278 7.08-.204Zm.477 4.602c.21.122.21.427 0 .549l-3.005 1.745a.315.315 0 0 1-.472-.274v-3.49c0-.245.262-.397.472-.275l3.005 1.745Z" clip-rule="evenodd"/>
</svg>