<svg widh="100%" height="100%" viewBox="0 0 24 24" fill="current"
  xmlns="http://www.w3.org/2000/svg">
  <g clip-path="url(#clip0_5_131)">
    <path d="M11.0344 23.5407C11.6468 24.1531 12.6343 24.1531 13.2468 23.5407L23.6344 13.1532C24.1219 12.6657 24.1219 11.8782 23.6344 11.3907L13.2468 1.00321C12.6343 0.390734 11.6468 0.390734 11.0344 1.00321C10.4219 1.61569 10.4219 2.60317 11.0344 3.21565L20.0843 12.2782L11.0219 21.3407C10.4219 21.9407 10.4219 22.9407 11.0344 23.5407Z"/>
    <path d="M1.43436 23.5407C2.04684 24.1531 3.03432 24.1531 3.6468 23.5407L14.0344 13.1532C14.5219 12.6657 14.5219 11.8782 14.0344 11.3907L3.6468 1.00321C3.03432 0.390734 2.04684 0.390734 1.43436 1.00321C0.821878 1.61569 0.821878 2.60317 1.43436 3.21565L10.4844 12.2782L1.42188 21.3407C0.82188 21.9407 0.821878 22.9407 1.43436 23.5407Z"/>
  </g>
  <defs>
    <clipPath id="clip0_5_131">
      <rect widh="100%" height="100%" fill="white"/>
    </clipPath>
  </defs>
</svg>
