<svg widh="100%" height="100%" viewBox="0 0 24 24" fill="current"
  xmlns="http://www.w3.org/2000/svg">
  <g clip-path="url(#clip0_5_136)">
    <path d="M12.9656 0.45936C12.3532 -0.15312 11.3657 -0.15312 10.7532 0.45936L0.365662 10.8468C-0.121898 11.3344 -0.121898 12.1218 0.365662 12.6094L10.7532 22.9968C11.3657 23.6093 12.3532 23.6093 12.9656 22.9968C13.5781 22.3843 13.5781 21.3968 12.9656 20.7844L3.91566 11.7218L12.9781 2.65932C13.5781 2.05932 13.5781 1.05936 12.9656 0.45936Z"/>
    <path d="M22.5656 0.45936C21.9532 -0.15312 20.9657 -0.15312 20.3532 0.45936L9.96566 10.8468C9.4781 11.3344 9.4781 12.1218 9.96566 12.6094L20.3532 22.9968C20.9657 23.6093 21.9532 23.6093 22.5656 22.9968C23.1781 22.3843 23.1781 21.3968 22.5656 20.7844L13.5156 11.7218L22.5781 2.65932C23.1781 2.05932 23.1781 1.05936 22.5656 0.45936Z"/>
  </g>
  <defs>
    <clipPath id="clip0_5_136">
      <rect widh="100%" height="100%" fill="white"/>
    </clipPath>
  </defs>
</svg>
