<svg xmlns="http://www.w3.org/2000/svg" fill="currentColor" viewBox="0 0 24 24">
  <path fill-rule="evenodd" d="M1.25 12C1.25 6.063 6.063 1.25 12 1.25S22.75 6.063 22.75 12 17.937 22.75 12 22.75 1.25 17.937 1.25 12ZM12 2.75a9.25 9.25 0 1 0 0 18.5 9.25 9.25 0 0 0 0-18.5Z" clip-rule="evenodd"/>
  <path fill-rule="evenodd" d="M5 12a1.75 1.75 0 1 1 3.5 0A1.75 1.75 0 0 1 5 12ZM10.25 12a1.75 1.75 0 1 1 3.5 0 1.75 1.75 0 0 1-3.5 0ZM15.5 12a1.75 1.75 0 1 1 3.5 0 1.75 1.75 0 0 1-3.5 0Z" clip-rule="evenodd"/>
</svg>