<svg xmlns="http://www.w3.org/2000/svg" fill="currentColor" viewBox="0 0 24 24">
  <path fill-rule="evenodd" d="M12 3c-.515 0-1.02.043-1.51.126a1 1 0 0 1-.332-1.972 11.068 11.068 0 0 1 3.684 0 1 1 0 1 1-.333 1.972A9.067 9.067 0 0 0 12 3Zm-4.972.264a1 1 0 0 1-.236 1.395A9.057 9.057 0 0 0 4.66 6.792a1 1 0 1 1-1.63-1.158 11.057 11.057 0 0 1 2.605-2.605 1 1 0 0 1 1.394.235Zm9.944 0a1 1 0 0 1 1.394-.235 11.057 11.057 0 0 1 2.605 2.605 1 1 0 0 1-1.63 1.158 9.057 9.057 0 0 0-2.133-2.133 1 1 0 0 1-.236-1.395ZM2.306 9.338a1 1 0 0 1 .82 1.153 9.067 9.067 0 0 0 0 3.018 1 1 0 1 1-1.972.333 11.067 11.067 0 0 1 0-3.684 1 1 0 0 1 1.152-.82Zm19.388 0a1 1 0 0 1 1.152.82 11.065 11.065 0 0 1 0 3.684 1 1 0 1 1-1.972-.333 9.068 9.068 0 0 0 0-3.018 1 1 0 0 1 .82-1.153Zm-.958 7.634a1 1 0 0 1 .235 1.394 11.058 11.058 0 0 1-2.605 2.605 1 1 0 0 1-1.158-1.63 9.056 9.056 0 0 0 2.133-2.133 1 1 0 0 1 1.395-.236Zm-17.472 0a1 1 0 0 1 1.395.236 9.057 9.057 0 0 0 2.133 2.133 1 1 0 0 1-1.158 1.63 11.057 11.057 0 0 1-2.605-2.605 1 1 0 0 1 .235-1.394Zm11.398 4.722a1 1 0 0 1-.82 1.152 11.065 11.065 0 0 1-3.684 0 1 1 0 1 1 .333-1.972 9.068 9.068 0 0 0 3.018 0 1 1 0 0 1 1.153.82Z" clip-rule="evenodd"/>
</svg>