<svg widh="100%" height="100%" viewBox="0 0 24 24" fill="current"
  xmlns="http://www.w3.org/2000/svg">
  <path fill-rule="evenodd" clip-rule="evenodd" d="M1.25 12C1.25 6.06294 6.06294 1.25 12 1.25C17.937 1.25 22.75 6.06293 22.75 12C22.75 17.937 17.937 22.75 12 22.75C6.06293 22.75 1.25 17.937 1.25 12ZM12 2.75C6.89136 2.75 2.75 6.89136 2.75 12C2.75 17.1086 6.89137 21.25 12 21.25C17.1086 21.25 21.25 17.1086 21.25 12C21.25 6.89137 17.1086 2.75 12 2.75Z"/>
  <path fill-rule="evenodd" clip-rule="evenodd" d="M5 12C5 11.0336 5.78347 10.25 6.75 10.25C7.71653 10.25 8.5 11.0336 8.5 12C8.5 12.9664 7.71653 13.75 6.75 13.75C5.78347 13.75 5 12.9664 5 12Z"/>
  <path fill-rule="evenodd" clip-rule="evenodd" d="M10.25 12C10.25 11.0336 11.0336 10.25 12 10.25C12.9664 10.25 13.75 11.0336 13.75 12C13.75 12.9664 12.9664 13.75 12 13.75C11.0336 13.75 10.25 12.9664 10.25 12Z"/>
  <path fill-rule="evenodd" clip-rule="evenodd" d="M15.5 12C15.5 11.0336 16.2836 10.25 17.25 10.25C18.2164 10.25 19 11.0336 19 12C19 12.9664 18.2164 13.75 17.25 13.75C16.2836 13.75 15.5 12.9664 15.5 12Z"/>
</svg>
