<svg widh="100%" height="100%" viewBox="0 0 24 24" fill="current"
  xmlns="http://www.w3.org/2000/svg">
  <path fill-rule="evenodd" clip-rule="evenodd" d="M15.7647 3.54506C13.9428 2.73322 11.9071 2.5321 9.96147 2.97169C8.01583 3.41129 6.2644 4.46804 4.96841 5.98435C3.67242 7.50066 2.90129 9.39528 2.77006 11.3856C2.63881 13.376 3.15447 15.3555 4.24015 17.0289C5.32581 18.7022 6.92331 19.9798 8.79438 20.6711C10.6655 21.3623 12.7098 21.4302 14.6228 20.8647C16.5356 20.2991 18.2143 19.1304 19.4086 17.5327C20.6029 15.9352 21.2489 13.9942 21.25 11.9996V11.08C21.25 10.6658 21.5858 10.33 22 10.33C22.4142 10.33 22.75 10.6658 22.75 11.08V12C22.7487 14.3181 21.998 16.5742 20.61 18.4308C19.2221 20.2876 17.271 21.6459 15.048 22.3031C12.825 22.9604 10.4491 22.8815 8.27456 22.0781C6.10006 21.2748 4.2435 19.79 2.98178 17.8453C1.72008 15.9005 1.12077 13.6001 1.27331 11.2869C1.42583 8.97382 2.322 6.77196 3.82815 5.00977C5.3343 3.24757 7.36975 2.01945 9.6309 1.50857C11.8921 0.997699 14.2578 1.23142 16.3753 2.17492C16.7536 2.34351 16.9237 2.78689 16.7551 3.16525C16.5865 3.5436 16.1431 3.71365 15.7647 3.54506Z"/>
  <path fill-rule="evenodd" clip-rule="evenodd" d="M22.5301 3.4694C22.8231 3.76215 22.8233 4.23703 22.5306 4.53007L12.5306 14.5401C12.39 14.6808 12.1992 14.76 12.0002 14.76C11.8012 14.76 11.6104 14.681 11.4697 14.5403L8.46967 11.5403C8.17678 11.2474 8.17678 10.7726 8.46967 10.4797C8.76256 10.1868 9.23744 10.1868 9.53033 10.4797L11.9997 12.9491L21.4694 3.46993C21.7622 3.1769 22.237 3.17666 22.5301 3.4694Z"/>
</svg>
