<svg xmlns="http://www.w3.org/2000/svg" fill="currentColor" viewBox="0 0 24 24">
  <path fill-rule="evenodd" d="M11 2a1 1 0 0 0-1 1v1h4V3a1 1 0 0 0-1-1h-2Zm5 2V3a3 3 0 0 0-3-3h-2a3 3 0 0 0-3 3v1H3a1 1 0 0 0 0 2h.105l1.703 15.331A3 3 0 0 0 7.79 24h8.42a3 3 0 0 0 2.982-2.669L20.895 6H21a1 1 0 1 0 0-2h-5Zm2.883 2H5.117l1.68 15.11a1 1 0 0 0 .993.89h8.42a1 1 0 0 0 .994-.89L18.883 6ZM10 9a1 1 0 0 1 1 1v8a1 1 0 1 1-2 0v-8a1 1 0 0 1 1-1Zm4 0a1 1 0 0 1 1 1v8a1 1 0 1 1-2 0v-8a1 1 0 0 1 1-1Z" clip-rule="evenodd"/>
</svg>