<svg xmlns="http://www.w3.org/2000/svg" fill="currentColor" viewBox="0 0 24 24">
  <path fill-rule="evenodd" d="M4 5a1 1 0 0 0-1 1v14a1 1 0 0 0 .293.707l-.707.706.707-.706A1 1 0 0 0 4 21h14a1 1 0 0 0 1-1v-5.34a1 1 0 1 1 2 0V20a3 3 0 0 1-3 3H4a3 3 0 0 1-3-3V6a3 3 0 0 1 .879-2.121m0 0A3 3 0 0 1 4 3h5.34a1 1 0 0 1 0 2H4" clip-rule="evenodd"/>
  <path fill-rule="evenodd" d="M17.293 1.293a1 1 0 0 1 1.414 0l4 4a1 1 0 0 1 0 1.414l-10 10A1 1 0 0 1 12 17H8a1 1 0 0 1-1-1v-4a1 1 0 0 1 .293-.707l10-10ZM9 12.414V15h2.586l9-9L18 3.414l-9 9Z" clip-rule="evenodd"/>
</svg>