<svg widh="100%" height="100%" viewBox="0 0 24 24" fill="current"
  xmlns="http://www.w3.org/2000/svg">
  <path d="M19 6C18.7348 6 18.4804 6.10536 18.2929 6.29289C18.1054 6.48043 18 6.73478 18 7V11C18 11.2652 17.8946 11.5196 17.7071 11.7071C17.5196 11.8946 17.2652 12 17 12H7.41L8.71 10.71C8.8983 10.5217 9.00409 10.2663 9.00409 10C9.00409 9.7337 8.8983 9.4783 8.71 9.29C8.5217 9.1017 8.2663 8.99591 8 8.99591C7.7337 8.99591 7.4783 9.1017 7.29 9.29L4.29 12.29C4.19896 12.3851 4.12759 12.4972 4.08 12.62C3.97998 12.8635 3.97998 13.1365 4.08 13.38C4.12759 13.5028 4.19896 13.6149 4.29 13.71L7.29 16.71C7.38296 16.8037 7.49356 16.8781 7.61542 16.9289C7.73728 16.9797 7.86799 17.0058 8 17.0058C8.13201 17.0058 8.26272 16.9797 8.38458 16.9289C8.50644 16.8781 8.61704 16.8037 8.71 16.71C8.80373 16.617 8.87812 16.5064 8.92889 16.3846C8.97966 16.2627 9.0058 16.132 9.0058 16C9.0058 15.868 8.97966 15.7373 8.92889 15.6154C8.87812 15.4936 8.80373 15.383 8.71 15.29L7.41 14H17C17.7956 14 18.5587 13.6839 19.1213 13.1213C19.6839 12.5587 20 11.7956 20 11V7C20 6.73478 19.8946 6.48043 19.7071 6.29289C19.5196 6.10536 19.2652 6 19 6Z"/>
</svg>
