<svg xmlns="http://www.w3.org/2000/svg" fill="currentColor" viewBox="0 0 24 24">
  <path fill-rule="evenodd" d="M12.905 5.057 8.973 8.99a.207.207 0 0 0-.056.144v7.909c0 .111.097.208.208.208h7.125a.22.22 0 0 0 .195-.13l2.576-6.013.004-.01a1.004 1.004 0 0 0-.922-1.389h-5.088a.875.875 0 0 1-.857-1.052l.125-.602.622-2.997Zm1.185 2.901h4.012c1.972 0 3.3 2.016 2.531 3.83l-.005.012-2.572 6.003A1.97 1.97 0 0 1 16.25 19H9.125a1.963 1.963 0 0 1-1.958-1.958v-7.91c0-.517.205-1.016.569-1.38l4.383-4.384a1.553 1.553 0 0 1 2.198-.016l.009.009c.371.374.526.902.424 1.416v.004l-.002.006-.658 3.171ZM4.375 10.5a.213.213 0 0 0-.208.208v6.334c0 .111.097.208.208.208a.213.213 0 0 0 .208-.208v-6.334a.213.213 0 0 0-.208-.208Zm-1.958.208c0-1.078.88-1.958 1.958-1.958 1.078 0 1.958.88 1.958 1.958v6.334c0 1.078-.88 1.958-1.958 1.958a1.963 1.963 0 0 1-1.958-1.958v-6.334Z" clip-rule="evenodd"/>
</svg>