<svg xmlns="http://www.w3.org/2000/svg" fill="currentColor" viewBox="0 0 24 24">
  <path fill-rule="evenodd" d="M23.313 3.84c.38 0 .687.306.687.682v15.196a.685.685 0 0 1-.687.682H.687A.685.685 0 0 1 0 19.718V4.522c0-.376.307-.682.687-.682h22.626ZM3.281 18.823a.353.353 0 0 0 .354-.351v-1.583a.353.353 0 0 0-.354-.351H1.687a.353.353 0 0 0-.354.351v1.583c0 .194.159.351.354.351h1.594Zm0-3.707a.353.353 0 0 0 .354-.351v-1.583a.353.353 0 0 0-.354-.351H1.687a.353.353 0 0 0-.354.351v1.583c0 .194.159.351.354.351h1.594Zm0-3.707a.353.353 0 0 0 .354-.351V9.475a.353.353 0 0 0-.354-.351H1.687a.353.353 0 0 0-.354.351v1.583c0 .194.159.351.354.351h1.594Zm0-3.707a.353.353 0 0 0 .354-.351V5.768a.353.353 0 0 0-.354-.351H1.687a.353.353 0 0 0-.354.351v1.583c0 .194.159.351.354.351h1.594Zm19.032 11.121a.353.353 0 0 0 .354-.351v-1.583a.353.353 0 0 0-.355-.351H20.72a.353.353 0 0 0-.354.351v1.583c0 .194.159.351.354.351h1.593Zm0-3.707a.353.353 0 0 0 .354-.351v-1.583a.353.353 0 0 0-.355-.351H20.72a.353.353 0 0 0-.354.351v1.583c0 .194.159.351.354.351h1.593Zm0-3.707a.353.353 0 0 0 .354-.351V9.475a.353.353 0 0 0-.355-.351H20.72a.353.353 0 0 0-.354.351v1.583c0 .194.159.351.354.351h1.593Zm0-3.707a.353.353 0 0 0 .354-.351V5.768a.353.353 0 0 0-.355-.351H20.72a.353.353 0 0 0-.354.351v1.583c0 .194.159.351.354.351h1.593Z" clip-rule="evenodd"/>
</svg>