<svg widh="100%" height="100%" viewBox="0 0 24 24" fill="current"
  xmlns="http://www.w3.org/2000/svg">
  <path fill-rule="evenodd" clip-rule="evenodd" d="M5.01818 12C5.01818 11.2378 5.14744 10.5072 5.3782 9.82182L1.33963 6.80212C0.552537 8.36692 0.109085 10.1301 0.109085 12C0.109085 13.8682 0.551996 15.6304 1.338 17.1941L5.37437 14.1685C5.14581 13.4864 5.01818 12.7584 5.01818 12Z" fill="#FBBC05"/>
  <path fill-rule="evenodd" clip-rule="evenodd" d="M12.1091 5.06665C13.8 5.06665 15.3273 5.65335 16.5273 6.61335L20.0182 3.2C17.8909 1.38666 15.1636 0.266663 12.1091 0.266663C7.36693 0.266663 3.29127 2.92213 1.33963 6.80215L5.3782 9.82185C6.30873 7.056 8.96124 5.06665 12.1091 5.06665Z" fill="#EA4335"/>
  <path fill-rule="evenodd" clip-rule="evenodd" d="M12.1091 18.9334C8.96124 18.9334 6.30873 16.944 5.3782 14.1782L1.33963 17.1974C3.29127 21.0779 7.36693 23.7334 12.1091 23.7334C15.036 23.7334 17.8304 22.7158 19.9276 20.8091L16.0942 17.9072C15.0126 18.5744 13.6505 18.9334 12.1091 18.9334Z" fill="#34A853"/>
  <path fill-rule="evenodd" clip-rule="evenodd" d="M23.5636 12C23.5636 11.3066 23.4545 10.56 23.2909 9.86664H12.1091V14.4H18.5455C18.2236 15.9456 17.3476 17.1338 16.0942 17.9072L19.9276 20.809C22.1307 18.8069 23.5636 15.8245 23.5636 12Z" fill="#4285F4"/>
</svg>
