<svg xmlns="http://www.w3.org/2000/svg" fill="currentColor" viewBox="0 0 24 24">
  <path fill="#FBBC05" fill-rule="evenodd" d="M5.018 12c0-.762.13-1.493.36-2.178L1.34 6.802A11.528 11.528 0 0 0 .11 12c0 1.868.442 3.63 1.228 5.194l4.036-3.025A6.81 6.81 0 0 1 5.018 12Z" clip-rule="evenodd"/>
  <path fill="#EA4335" fill-rule="evenodd" d="M12.11 5.067c1.69 0 3.217.586 4.417 1.546L20.018 3.2C17.891 1.387 15.164.267 12.11.267c-4.742 0-8.818 2.655-10.77 6.535l4.04 3.02c.93-2.766 3.582-4.755 6.73-4.755Z" clip-rule="evenodd"/>
  <path fill="#34A853" fill-rule="evenodd" d="M12.11 18.933c-3.149 0-5.801-1.989-6.732-4.755l-4.038 3.02c1.951 3.88 6.027 6.535 10.77 6.535 2.926 0 5.72-1.017 7.818-2.924l-3.834-2.902c-1.081.667-2.444 1.026-3.985 1.026Z" clip-rule="evenodd"/>
  <path fill="#4285F4" fill-rule="evenodd" d="M23.564 12c0-.693-.11-1.44-.273-2.133H12.109V14.4h6.437c-.322 1.546-1.198 2.734-2.452 3.507l3.834 2.902c2.203-2.002 3.636-4.985 3.636-8.809Z" clip-rule="evenodd"/>
</svg>