<svg xmlns="http://www.w3.org/2000/svg" fill="currentColor" viewBox="0 0 24 24">
  <path fill-rule="evenodd" d="M13.26 3C8.17 2.86 4 6.95 4 12H2.21c-.45 0-.67.54-.35.85l2.79 2.8c.2.2.51.2.71 0l2.79-2.8a.5.5 0 0 0-.36-.85H6c0-3.9 3.18-7.05 7.1-7 3.72.05 6.85 3.18 6.9 6.9.05 3.91-3.1 7.1-7 7.1-1.61 0-3.1-.55-4.28-1.48a.994.994 0 0 0-1.32.08c-.42.42-.39 1.13.08 1.49A8.858 8.858 0 0 0 13 21c5.05 0 9.14-4.17 9-9.26-.13-4.69-4.05-8.61-8.74-8.74Z" clip-rule="evenodd"/>
  <path fill-rule="evenodd" d="M13 6.636a1 1 0 0 1 1 1v3.95l2.616 2.616a1 1 0 0 1-1.414 1.414l-2.91-2.909A1 1 0 0 1 12 12V7.636a1 1 0 0 1 1-1Z" clip-rule="evenodd"/>
</svg>