<svg xmlns="http://www.w3.org/2000/svg" fill="currentColor" viewBox="0 0 24 24">
  <path d="M3 11.04V12s0-.12.06-.33c0-.12.03-.24.03-.39 0-.06.03-.15.03-.24.03-.09.03-.18.06-.27.03-.21.06-.42.12-.63.06-.24.12-.45.21-.72.06-.24.18-.51.3-.78s.27-.54.42-.84c.18-.27.36-.57.57-.84.24-.27.45-.57.72-.81.51-.54 1.14-.99 1.8-1.41.69-.42 1.47-.72 2.25-.93.21-.03.39-.09.6-.12.18-.06.39-.06.6-.09.21 0 .42-.03.63-.03h.6c.42.03.9.06 1.26.15.18.03.36.06.57.12.18.06.39.12.57.18.75.27 1.47.63 2.07 1.08.6.45 1.14.93 1.56 1.47.21.27.39.54.57.81.18.27.3.54.45.81.12.27.24.54.33.78.06.24.15.48.21.72.03.24.09.45.12.66.03.21.03.39.06.57 0 .09 2.31.6 2.31.66 0-.12 0-.24-.03-.42 0-.09-.03-.18-.03-.27-.03-.09-.03-.18-.06-.3-.06-.24-.09-.45-.15-.72-.06-.24-.15-.51-.24-.81-.09-.3-.24-.6-.36-.9-.12-.3-.3-.6-.48-.93-.18-.33-.39-.63-.63-.96-.27-.3-.51-.63-.81-.93-.57-.6-1.26-1.14-2.04-1.62-.78-.48-1.65-.84-2.55-1.08-.24-.06-.45-.09-.69-.15-.24-.06-.48-.06-.72-.09-.48-.09-.9-.06-1.35-.06h-.18l-.18.03-.36.03c-.24.03-.45.06-.69.12-.24.06-.48.06-.69.15-.21.09-.45.15-.66.21-.87.33-1.68.72-2.37 1.23-.69.51-1.32 1.05-1.8 1.68-.24.3-.45.63-.66.93-.18.33-.36.63-.51.93-.12.33-.27.6-.36.9-.06.3-.18.57-.24.84s-.09.51-.15.75c-.03.21-.03.45-.06.63 0 .09-.03.18-.03.27Z"/>
</svg>