<svg xmlns="http://www.w3.org/2000/svg" fill="currentColor" viewBox="0 0 24 24">
  <path d="M3.05 18.946c.218-.218.453-.352.722-.402a3 3 0 0 1 .486-.067c.42 0 .956.184 1.577.536C8.1 20.435 9.392 22.093 9.694 24c0 0 .117-.251.369-.736.251-.486.587-1.055 1.006-1.674 1.124-.753 1.997-.937 2.6-.937h.085c.67.05 1.04.217 1.04.217 0 .034-.671-1.104-1.728-1.238a2.176 2.176 0 0 1 1.056-.285c.118 0 .252 0 .37.017 1.14.251 1.912 1.138 2.7 2.159.47.636.99 1.205 1.578 1.707.587.519 1.342.77 2.264.77 0 0-.218-.218-.654-.67-.453-.451-.906-1.054-1.359-1.84-.453-.77-.755-1.674-.889-2.712-.017.034.335 1.021.637 1.322 0 0-.016-.318-.067-.937-.05-.62-.084-1.104-.084-1.456 0-.67.05-1.422.135-2.243.15-1.255.503-2.46 1.09-3.615.017 0-.084-.1-.268-.1-.201 0-.47.084-.923.452 0 0-.017-.168-.034-.486a8.2 8.2 0 0 1-.05-.836c0-.318.017-.67.05-1.055.084-1.339.504-2.862 1.527-3.95 0 0-.201-.167-.604-.485-.402-.318-.889-.753-1.442-1.305C16.958 2.979 15.834 1.556 15.314 0c0 0 .033.335.117 1.004.084.686.168 1.49.252 2.41.184 1.875.184 2.862.184 3.18 0 .62-.033 1.105-.117 1.44-.403 1.59-.705 1.974-.705 1.991 0 .017.772-.67 1.342-1.121 0 0-.067.318-.201.937a36.128 36.128 0 0 0-.403 2.377c-.285 1.89-.268 3.062-.268 3.28 0 .854.084 1.623.235 2.326 0 0-.201-.234-.587-.502-.403-.25-.906-.452-1.46-.452h-.1c.419.117.872.335 1.006.653l-1.594-.084c.017 0-.084-.25-.084-.468 0 0-.033-.285-.083-.87a20.144 20.144 0 0 1-.135-1.842 32.438 32.438 0 0 1-.05-1.606c0-.536.017-1.088.05-1.657.135-1.557.386-2.795.772-3.75l.554-1.405c.016 0-1.007.87-1.326 1.406 0 0 .05-.285.135-.837.083-.552.2-1.222.352-2.025.15-.787.352-1.573.604-2.36.235-.787.503-1.422.788-1.925 0 0-.168.251-.503.737a32.43 32.43 0 0 1-1.292 1.724 20.492 20.492 0 0 1-1.71 1.89c-.605.587-1.175 1.005-1.729 1.256 0 0 .067.435.218 1.289.134.853.269 1.84.42 2.962.134 1.121.218 2.142.268 3.063l-.705-.452s.084.335.235 1.021c.151.686.269 1.406.37 2.159.1.77.15 1.44.15 1.992 0 .284 0 .552-.016.82-.118 1.121-.252 1.924-.403 2.376a38.09 38.09 0 0 1-.235.686c-.184-.669-1.074-2.527-1.577-2.962.017.017.034.067.034.134 0 .084-.017.167-.034.251-.134-.134-.268-.268-.42-.385 0 0-.167-.15-.318-.519-.084-.184-.151-.435-.201-.77-.135-.652-.118-1.305-.118-1.439 0-.469.034-1.02.118-1.657.235-1.824.486-3.23.738-4.234.251-.988.369-1.49.369-1.49.017-.016-.99.335-1.158.837 0 0 .017-.519.034-1.556.017-1.021.134-2.243.352-3.666a15.939 15.939 0 0 1 1.158-4 33.327 33.327 0 0 0-1.577 1.69c-.52.62-1.09 1.222-1.695 1.775C4.761 4.2 3.973 4.77 3 5.322c0 0 .084.234.268.686.185.452.386 1.021.604 1.69.453 1.34.806 2.796.806 3.8v.117s-.118-.1-.252-.217a.755.755 0 0 0-.436-.168h-.05s.033.251.1.736c.118.988.218 2.394.218 3.532 0 .084-.017.284-.017.636 0 .351-.067.72-.184 1.071-.352.82-.688 1.39-1.007 1.74Z"/>
</svg>