<svg xmlns="http://www.w3.org/2000/svg" fill="currentColor" viewBox="0 0 24 24">
  <path d="M16.557 4.66c-1.26-1.26-2.782-1.89-4.564-1.89S8.69 3.4 7.43 4.66C6.17 5.92 5.54 7.442 5.54 9.224c0 .916.138 1.668.415 2.257l4.602 9.757c.126.278.321.496.586.656.265.16.549.24.851.24.303 0 .586-.08.851-.24a1.53 1.53 0 0 0 .599-.655l4.589-9.758c.277-.589.416-1.34.416-2.257 0-1.782-.63-3.303-1.891-4.564Zm-2.282 6.846a3.11 3.11 0 0 1-2.282.945 3.11 3.11 0 0 1-2.282-.945 3.11 3.11 0 0 1-.945-2.282c0-.891.315-1.652.945-2.282a3.11 3.11 0 0 1 2.282-.945c.891 0 1.652.315 2.282.945.63.63.945 1.391.945 2.282a3.11 3.11 0 0 1-.945 2.282Z"/>
</svg>