<svg widh="100%" height="100%" viewBox="0 0 24 24" fill="current"
  xmlns="http://www.w3.org/2000/svg">
  <path d="M14.2041 18.2857C14.2041 17.2037 13.327 16.3265 12.2449 16.3265C11.1629 16.3265 10.2857 17.2037 10.2857 18.2857C10.2857 19.3678 11.1629 20.2449 12.2449 20.2449C13.327 20.2449 14.2041 19.3678 14.2041 18.2857Z"/>
  <path d="M14.2041 12.4081C14.2041 11.3261 13.327 10.449 12.2449 10.449C11.1629 10.449 10.2857 11.3261 10.2857 12.4081C10.2857 13.4902 11.1629 14.3673 12.2449 14.3673C13.327 14.3673 14.2041 13.4902 14.2041 12.4081Z"/>
  <path d="M14.2041 6.53062C14.2041 5.4486 13.327 4.57144 12.2449 4.57144C11.1629 4.57144 10.2857 5.4486 10.2857 6.53062C10.2857 7.61265 11.1629 8.48981 12.2449 8.48981C13.327 8.48981 14.2041 7.61265 14.2041 6.53062Z"/>
</svg>
