<svg xmlns="http://www.w3.org/2000/svg" fill="currentColor" viewBox="0 0 24 24">
  <path d="M17.333 9.333h1.778c.236 0 .462.096.629.265.166.17.26.4.26.64v10.857c0 .24-.094.47-.26.64a.881.881 0 0 1-.629.265H4.89a.881.881 0 0 1-.629-.265.913.913 0 0 1-.26-.64V10.238c0-.24.094-.47.26-.64a.881.881 0 0 1 .629-.265h1.778V8.43c0-1.44.562-2.821 1.562-3.839A5.286 5.286 0 0 1 12 3c1.415 0 2.771.572 3.771 1.59a5.478 5.478 0 0 1 1.562 3.839v.904Zm-1.777 0V8.43c0-.96-.375-1.88-1.042-2.56A3.524 3.524 0 0 0 12 4.81c-.943 0-1.847.382-2.514 1.06a3.652 3.652 0 0 0-1.042 2.56v.904h7.112Zm-8 2.715v1.81h1.777v-1.81H7.556Zm0 2.714v1.81h1.777v-1.81H7.556Zm0 2.714v1.81h1.777v-1.81H7.556Z"/>
</svg>