<svg xmlns="http://www.w3.org/2000/svg" fill="currentColor" viewBox="0 0 24 24">
  <path fill-rule="evenodd" d="M12 2.833C6.94 2.833 2.833 6.94 2.833 12S6.94 21.167 12 21.167 21.167 17.06 21.167 12 17.06 2.833 12 2.833Zm-.917 16.436A7.323 7.323 0 0 1 4.667 12c0-.568.073-1.11.192-1.64l4.391 4.39v.917c0 1.008.825 1.833 1.833 1.833v1.77Zm6.325-2.328a1.818 1.818 0 0 0-1.741-1.274h-.917v-2.75a.92.92 0 0 0-.917-.917h-5.5v-1.833h1.834a.92.92 0 0 0 .916-.917V7.417h1.834a1.839 1.839 0 0 0 1.833-1.834v-.376C17.436 6.298 19.333 8.93 19.333 12c0 1.907-.733 3.64-1.925 4.94Z" clip-rule="evenodd"/>
</svg>