<svg xmlns="http://www.w3.org/2000/svg" fill="currentColor" viewBox="0 0 24 24">
  <path fill-rule="evenodd" d="M5 3.75A1.25 1.25 0 0 0 3.75 5v14c0 .331.132.65.366.884l-.53.53.53-.53c.235.234.552.366.884.366h14A1.25 1.25 0 0 0 20.25 19V8.31l-4.56-4.56H5Zm-1.945-.695A2.75 2.75 0 0 1 5 2.25h11a.75.75 0 0 1 .53.22l5 5c.141.14.22.331.22.53v11A2.75 2.75 0 0 1 19 21.75H5A2.75 2.75 0 0 1 2.25 19V5c0-.73.29-1.429.805-1.945Z" clip-rule="evenodd"/>
  <path fill-rule="evenodd" d="M6.25 13a.75.75 0 0 1 .75-.75h10a.75.75 0 0 1 .75.75v8a.75.75 0 0 1-1.5 0v-7.25h-8.5V21a.75.75 0 0 1-1.5 0v-8ZM7 2.25a.75.75 0 0 1 .75.75v4.25H15a.75.75 0 0 1 0 1.5H7A.75.75 0 0 1 6.25 8V3A.75.75 0 0 1 7 2.25Z" clip-rule="evenodd"/>
</svg>