<svg widh="100%" height="100%" viewBox="0 0 24 24" fill="current"
  xmlns="http://www.w3.org/2000/svg">
  <path d="M14.5703 16.0703C13.5279 16.8131 12.2525 17.25 10.875 17.25C7.35418 17.25 4.5 14.3958 4.5 10.875C4.5 7.35419 7.35418 4.5 10.875 4.5C14.3958 4.5 17.25 7.35419 17.25 10.875C17.25 12.2525 16.8131 13.5279 16.0703 14.5703L20.2589 18.7589C20.6716 19.1716 20.6681 19.8319 20.2588 20.2412L20.2412 20.2588C19.8329 20.6671 19.1682 20.6682 18.7589 20.2589L14.5703 16.0703ZM10.875 15.75C13.5674 15.75 15.75 13.5674 15.75 10.875C15.75 8.18257 13.5674 6 10.875 6C8.18257 6 6 8.18257 6 10.875C6 13.5674 8.18257 15.75 10.875 15.75Z"/>
</svg>
