<svg xmlns="http://www.w3.org/2000/svg" fill="currentColor" viewBox="0 0 24 24">
  <path fill-rule="evenodd" d="M1.464 15.464A5 5 0 0 1 5 14h8a5 5 0 0 1 5 5v2a1 1 0 1 1-2 0v-2a3 3 0 0 0-3-3H5a3 3 0 0 0-3 3v2a1 1 0 1 1-2 0v-2a5 5 0 0 1 1.464-3.536ZM9 4a3 3 0 1 0 0 6 3 3 0 0 0 0-6ZM4 7a5 5 0 1 1 10 0A5 5 0 0 1 4 7ZM19.032 14.88a1 1 0 0 1 1.218-.718A5 5 0 0 1 24 18.999V21a1 1 0 1 1-2 0v-2a3 3 0 0 0-2.25-2.902 1 1 0 0 1-.718-1.218ZM15.031 2.882a1 1 0 0 1 1.217-.72 5 5 0 0 1 0 9.687 1 1 0 0 1-.496-1.938 3 3 0 0 0 0-5.812 1 1 0 0 1-.72-1.217Z" clip-rule="evenodd"/>
</svg>