<svg xmlns="http://www.w3.org/2000/svg" fill="currentColor" viewBox="0 0 24 24">
  <path d="M12.05 23C5.956 23 1 18.043 1 11.95a11.05 11.05 0 0 1 9.504-10.94 1 1 0 0 1 .814 1.728A7.058 7.058 0 0 0 9.03 7.93a7.047 7.047 0 0 0 7.039 7.04 7.058 7.058 0 0 0 5.194-2.289 1 1 0 0 1 1.727.814A11.05 11.05 0 0 1 12.05 23ZM8.001 3.86C5.02 5.36 3 8.464 3 11.95 3 16.94 7.06 21 12.05 21c3.485 0 6.589-2.02 8.09-5.002a9.046 9.046 0 0 1-4.071.973c-4.985 0-9.04-4.056-9.04-9.04a9.045 9.045 0 0 1 .973-4.072Z"/>
</svg>