<svg widh="100%" height="100%" viewBox="0 0 24 24" fill="current"
  xmlns="http://www.w3.org/2000/svg">
  <path d="M12.0492 23C5.95664 23 0.999985 18.0434 0.999985 11.9508C1.00022 9.2881 1.96185 6.71501 3.708 4.70481C5.45415 2.6946 7.8674 1.38245 10.5039 1.00971C10.7152 0.980138 10.9305 1.01894 11.1182 1.12045C11.3059 1.22196 11.4562 1.38085 11.5471 1.57389C11.638 1.76693 11.6648 1.98401 11.6236 2.19337C11.5823 2.40273 11.4752 2.59341 11.3178 2.73752C10.5977 3.39774 10.0225 4.20025 9.62865 5.09427C9.23476 5.98828 9.03075 6.95433 9.02953 7.93127C9.02953 11.8125 12.1875 14.9705 16.0687 14.9705C17.0457 14.9693 18.0117 14.7653 18.9058 14.3714C19.7998 13.9775 20.6023 13.4023 21.2625 12.6822C21.4066 12.5248 21.5973 12.4176 21.8067 12.3763C22.0161 12.335 22.2332 12.3618 22.4262 12.4528C22.6193 12.5437 22.7782 12.6941 22.8797 12.8818C22.9812 13.0695 23.02 13.2848 22.9904 13.4961C22.6177 16.1326 21.3055 18.5459 19.2953 20.292C17.2851 22.0382 14.712 22.9998 12.0493 23H12.0492ZM8.00156 3.85924C5.0198 5.36145 3 8.46462 3 11.9508C3 16.9406 7.05937 21 12.0492 21C15.5354 21 18.6386 18.9802 20.1408 15.9985C18.8781 16.6364 17.4834 16.9694 16.0687 16.9705C11.0844 16.9705 7.02933 12.9154 7.02933 7.93104C7.03054 6.51642 7.36354 5.12181 8.00156 3.85924V3.85924Z" />
</svg>
