<svg widh="100%" height="100%" viewBox="0 0 24 24" fill="current"
  xmlns="http://www.w3.org/2000/svg">
  <path fill-rule="evenodd" clip-rule="evenodd" d="M3 12C3 7.02944 7.02944 3 12 3C16.9706 3 21 7.02944 21 12C21 16.9706 16.9706 21 12 21C7.02944 21 3 16.9706 3 12ZM12 5C8.134 5 5 8.134 5 12C5 15.866 8.134 19 12 19C15.866 19 19 15.866 19 12C19 8.134 15.866 5 12 5Z"/>
  <path fill-rule="evenodd" clip-rule="evenodd" d="M12 6.63635C12.5523 6.63635 13 7.08407 13 7.63635V11.5858L15.6162 14.202C16.0067 14.5925 16.0067 15.2257 15.6162 15.6162C15.2257 16.0067 14.5925 16.0067 14.202 15.6162L11.2929 12.7071C11.1054 12.5196 11 12.2652 11 12V7.63635C11 7.08407 11.4477 6.63635 12 6.63635Z"/>
</svg>
