<svg widh="100%" height="100%" viewBox="0 0 24 24" fill="current"
  xmlns="http://www.w3.org/2000/svg">
  <path d="M7.46154 18.9231H9.3077C9.5626 18.9231 9.76923 18.7165 9.76923 18.4616L9.76923 6.46156C9.76923 6.20666 9.5626 6.00002 9.3077 6.00002H7.46154C7.20664 6.00002 7 6.20666 7 6.46156L7 18.4616C7 18.7165 7.20664 18.9231 7.46154 18.9231Z" />
  <path d="M2.46154 18.9231H4.3077C4.5626 18.9231 4.76923 18.7165 4.76923 18.4616L4.76923 6.46156C4.76923 6.20666 4.5626 6.00002 4.3077 6.00002H2.46154C2.20664 6.00002 2 6.20666 2 6.46156L2 18.4616C2 18.7165 2.20664 18.9231 2.46154 18.9231Z" />
  <path d="M21.7692 6.02955L11.644 12.4763L21.7692 18.9231V6.02863V6.02955Z" />
</svg>
