<svg xmlns="http://www.w3.org/2000/svg" viewBox="0 0 24 24" fill="currentColor">
  <path fill-rule="evenodd" d="M8.608 4.083c-.228.104-.462.367-.497.56-.015.082-.02 1.058-.013 2.17l.013 2.02.109.16c.06.088.18.209.268.269l.159.11 3.316.011c3.195.012 3.322.01 3.486-.074a.878.878 0 0 0 .438-.47c.105-.25.105-4.035 0-4.286a.834.834 0 0 0-.45-.47c-.17-.078-.366-.083-3.414-.083-3.031 0-3.245.005-3.415.083Zm3.008 6.467v.748l-4.262.011-4.263.012-.012 1.258-.012 1.259h.816V12.16H11.616v1.678h.814V12.16h7.688v1.678h.814v-2.54H12.43V9.802h-.814v.748ZM.456 14.412a.832.832 0 0 0-.418.517c-.032.118-.044.762-.035 1.85l.013 1.668.12.182c.067.1.199.221.294.269.166.082.312.086 3.068.086h2.895l.186-.107a.897.897 0 0 0 .294-.295c.106-.185.108-.203.122-1.729.008-.848.002-1.648-.014-1.778a.8.8 0 0 0-.409-.635l-.18-.102H3.499c-2.573 0-2.91.009-3.042.074Zm8.487.03a.772.772 0 0 0-.3.283c-.1.176-.1.202-.102 1.914 0 1.365.013 1.768.061 1.884.08.192.304.378.527.439.118.032 1.121.043 2.997.035l2.82-.013.193-.128c.36-.238.364-.264.365-2.197 0-1.336-.012-1.721-.061-1.837a.916.916 0 0 0-.45-.437c-.085-.033-1.077-.049-2.989-.049H9.143l-.2.106Zm8.555-.026a1.113 1.113 0 0 0-.294.253l-.139.175-.013 1.745c-.013 1.712-.012 1.75.084 1.949.06.124.17.25.282.325l.183.121 2.819.013c1.912.009 2.877-.003 3-.036.213-.057.463-.264.537-.443.038-.09.05-.638.04-1.916l-.013-1.79-.105-.148a.924.924 0 0 0-.281-.238c-.17-.086-.276-.09-3.06-.09-2.657 0-2.897.007-3.04.08Z" clip-rule="evenodd"/>
</svg>