<svg xmlns="http://www.w3.org/2000/svg" fill="currentColor" viewBox="0 0 24 24">
  <path fill-rule="evenodd" d="M.75 12C.75 5.787 5.787.75 12 .75S23.25 5.787 23.25 12 18.213 23.25 12 23.25.75 18.213.75 12ZM12 2.25c-5.385 0-9.75 4.365-9.75 9.75s4.365 9.75 9.75 9.75 9.75-4.365 9.75-9.75S17.385 2.25 12 2.25Z" clip-rule="evenodd"/>
  <path fill-rule="evenodd" d="M7.5 9.75a4.5 4.5 0 1 1 9 0 4.5 4.5 0 0 1-9 0Zm4.5-3a3 3 0 1 0 0 6 3 3 0 0 0 0-6Z" clip-rule="evenodd"/>
  <path fill-rule="evenodd" d="M12 14.325c-3.282 0-6.024 1.98-7.263 4.802a.75.75 0 1 1-1.374-.604c1.461-3.328 4.719-5.698 8.637-5.698 3.908 0 7.253 2.362 8.643 5.713a.75.75 0 1 1-1.386.574c-1.16-2.799-3.965-4.787-7.257-4.787Z" clip-rule="evenodd"/>
</svg>