<svg xmlns="http://www.w3.org/2000/svg" viewBox="0 0 24 24" fill="currentColor">
  <path fill-rule="evenodd" d="M21.075 4.138c1.275.075 2.325 1.125 2.475 2.325.6 4.425.6 6.675.075 11.1-.225 1.2-1.275 2.25-2.475 2.325-3.675.225-6.45.375-9.15.375s-5.475-.15-9.075-.375C1.725 19.813.6 18.763.45 17.563c-.6-4.425-.6-6.675 0-11.1.15-1.2 1.2-2.25 2.4-2.325 7.275-.525 10.875-.525 18.225 0Zm-5.411 8.337a.533.533 0 0 0 0-.924l-5.096-2.942a.533.533 0 0 0-.8.462v5.884c0 .41.444.667.8.462l5.096-2.942Z" clip-rule="evenodd"/>
</svg>