<svg xmlns="http://www.w3.org/2000/svg" fill="currentColor" viewBox="0 0 24 24">
  <path fill-rule="evenodd" d="M20.549 3.87c1.566.095 2.828 1.365 3.014 2.83.57 4.21.57 6.382.071 10.588l-.003.025-.005.025c-.264 1.411-1.493 2.694-3.009 2.789h-.001c-3.443.21-6.065.353-8.62.353-2.557 0-5.178-.142-8.552-.353-1.481-.093-2.829-1.348-3.016-2.83-.57-4.21-.57-6.386 0-10.597.184-1.453 1.435-2.733 2.942-2.83 6.85-.494 10.26-.494 17.179 0Zm-.102 1.497c-6.853-.49-10.19-.49-16.972 0h-.008c-.739.046-1.453.73-1.552 1.524v.007c-.554 4.08-.554 6.121 0 10.201v.008c.096.765.856 1.476 1.623 1.523 3.374.211 5.953.35 8.457.35 2.505 0 5.084-.139 8.528-.35.727-.045 1.46-.718 1.625-1.546.482-4.068.48-6.113-.072-10.186v-.007c-.098-.78-.8-1.476-1.62-1.524h-.01Zm-9.794 4.307v4.65l4.026-2.325-4.026-2.325Zm-1.499-.433a1.25 1.25 0 0 1 1.874-1.082l4.776 2.758a1.25 1.25 0 0 1 0 2.164l-4.776 2.757a1.25 1.25 0 0 1-1.874-1.082V9.24Z" clip-rule="evenodd"/>
</svg>