<svg xmlns="http://www.w3.org/2000/svg" fill="currentColor" viewBox="0 0 24 24">
  <path fill-rule="evenodd" d="M3.203 12a19.509 19.509 0 0 0 2.383 2.429C7.301 15.889 9.567 17.25 12 17.25s4.699-1.361 6.414-2.821A19.509 19.509 0 0 0 20.797 12a19.513 19.513 0 0 0-2.383-2.429C16.699 8.111 14.433 6.75 12 6.75S7.301 8.111 5.586 9.571A19.513 19.513 0 0 0 3.203 12Zm18.547 0 .607-.44-.002-.003-.003-.004-.012-.016a10.578 10.578 0 0 0-.199-.26 21.014 21.014 0 0 0-2.755-2.849C17.576 6.889 14.967 5.25 12 5.25c-2.967 0-5.576 1.639-7.386 3.179a21.012 21.012 0 0 0-2.755 2.848 12.165 12.165 0 0 0-.2.26l-.011.016-.003.004-.002.002.607.441-.607-.44a.75.75 0 0 0 0 .88L2.25 12l-.607.44.002.003.003.004.012.016a7.38 7.38 0 0 0 .199.26 21.011 21.011 0 0 0 2.755 2.849c1.81 1.54 4.419 3.178 7.386 3.178 2.967 0 5.576-1.639 7.386-3.179a21.014 21.014 0 0 0 2.755-2.848 12.745 12.745 0 0 0 .2-.26l.011-.016.003-.004.002-.002L21.75 12Zm0 0 .607.44a.75.75 0 0 0 0-.88l-.607.44Z" clip-rule="evenodd"/>
  <path fill-rule="evenodd" d="M8.25 12a3.75 3.75 0 1 1 7.5 0 3.75 3.75 0 0 1-7.5 0ZM12 9.75a2.25 2.25 0 1 0 0 4.5 2.25 2.25 0 0 0 0-4.5Z" clip-rule="evenodd"/>
</svg>