<svg xmlns="http://www.w3.org/2000/svg" fill="currentColor" viewBox="0 0 24 24">
  <path d="M9.58 4.431c.48-.448.872-.296.872.338V19.23c0 .635-.393.787-.871.338l-4.506-4.215H2.087V8.648h2.988L9.58 4.43Zm2.758 11.57a.925.925 0 0 1-.634-.246.8.8 0 0 1 0-1.186c1.514-1.416 1.514-3.72 0-5.137a.8.8 0 0 1 0-1.185.94.94 0 0 1 1.267 0c2.214 2.07 2.214 5.438 0 7.508a.929.929 0 0 1-.633.245Zm3.183 1.58a.926.926 0 0 1-.633-.246.8.8 0 0 1 0-1.186c2.445-2.287 2.445-6.01 0-8.298a.8.8 0 0 1 0-1.185.94.94 0 0 1 1.267 0C17.679 8.09 18.518 9.985 18.518 12c0 2.015-.839 3.91-2.363 5.335a.926.926 0 0 1-.634.246Zm3.185 1.58a.928.928 0 0 1-.635-.245.801.801 0 0 1 0-1.185c1.637-1.532 2.538-3.567 2.538-5.731 0-2.164-.9-4.2-2.538-5.73a.801.801 0 0 1 0-1.186.941.941 0 0 1 1.268 0c1.975 1.847 3.063 4.304 3.063 6.916s-1.088 5.069-3.063 6.916a.923.923 0 0 1-.633.246Z"/>
</svg>